<?xml version="1.0" standalone="no"?>
<!DOCTYPE svg PUBLIC "-//W3C//DTD SVG 20010904//EN"
 "http://www.w3.org/TR/2001/REC-SVG-20010904/DTD/svg10.dtd">
<svg version="1.0" xmlns="http://www.w3.org/2000/svg"
 width="920.000000pt" height="512.000000pt" viewBox="0 0 920.000000 512.000000"
 preserveAspectRatio="xMidYMid meet">

<g transform="translate(0.000000,512.000000) scale(0.100000,-0.100000)"
fill="#000000" stroke="none">
<path d="M3363 4022 c-200 -71 -298 -304 -210 -497 25 -53 82 -114 480 -512
l452 -453 -452 -452 c-523 -524 -508 -504 -508 -668 0 -85 3 -101 29 -151 70
-140 199 -215 351 -207 139 7 136 5 643 511 l452 452 453 -452 c398 -398 459
-455 512 -480 117 -54 263 -40 363 34 106 79 157 187 150 317 -7 140 -4 136
-511 644 l-452 452 452 453 c506 506 504 503 511 642 8 152 -67 281 -207 351
-50 26 -66 29 -151 29 -164 0 -144 15 -667 -508 l-453 -452 -452 452 c-514
513 -504 505 -653 510 -58 3 -94 -2 -132 -15z"/>
</g>
</svg>
